HIERARCHY
ROOT joint_Root
{
	OFFSET 0.0 0.0 0.0
	CHANNELS 6 Xposition Yposition Zposition Zrotation Xrotation Yrotation 
	JOINT Hips
	{
		OFFSET -17.1583 93.1646 452.98
		CHANNELS 6 Xposition Yposition Zposition Zrotation Xrotation Yrotation 
		JOINT Spine
		{
			OFFSET 15.7357 0.0 0.0
			CHANNELS 6 Xposition Yposition Zposition Zrotation Xrotation Yrotation 
			JOINT Chest
			{
				OFFSET 8.98455 -0.406207 0.0
				CHANNELS 6 Xposition Yposition Zposition Zrotation Xrotation Yrotation 
				JOINT Neck
				{
					OFFSET 16.3773 0.0 0.0
					CHANNELS 6 Xposition Yposition Zposition Zrotation Xrotation Yrotation 
					JOINT Head
					{
						OFFSET 6.45672 0.0 0.0
						CHANNELS 6 Xposition Yposition Zposition Zrotation Xrotation Yrotation 
						End Site
						{
							OFFSET 0.0 0.0 0.0
						}
					}
				}
				JOINT Shoulder_L
				{
					OFFSET 12.9942 -0.242716 4.98039
					CHANNELS 6 Xposition Yposition Zposition Zrotation Xrotation Yrotation 
					JOINT UpperArm_L
					{
						OFFSET 5.34809 0.0 0.0
						CHANNELS 6 Xposition Yposition Zposition Zrotation Xrotation Yrotation 
						JOINT LowerArm_L
						{
							OFFSET 24.3286 1.87007e-05 0.0
							CHANNELS 6 Xposition Yposition Zposition Zrotation Xrotation Yrotation 
							JOINT Hand_L
							{
								OFFSET 22.2916 0.0 0.0
								CHANNELS 6 Xposition Yposition Zposition Zrotation Xrotation Yrotation 
								End Site
								{
									OFFSET 0.0 0.0 0.0
								}
							}
						}
					}
				}
				JOINT Shoulder_R
				{
					OFFSET 12.9945 -0.242716 -4.98039
					CHANNELS 6 Xposition Yposition Zposition Zrotation Xrotation Yrotation 
					JOINT UpperArm_R
					{
						OFFSET -5.34813 0.0 0.0
						CHANNELS 6 Xposition Yposition Zposition Zrotation Xrotation Yrotation 
						JOINT LowerArm_R
						{
							OFFSET -24.3289 0.000322201 0.0
							CHANNELS 6 Xposition Yposition Zposition Zrotation Xrotation Yrotation 
							JOINT Hand_R
							{
								OFFSET -22.2915 -0.000108084 0.0
								CHANNELS 6 Xposition Yposition Zposition Zrotation Xrotation Yrotation 
								End Site
								{
									OFFSET 0.0 0.0 0.0
								}
							}
						}
					}
				}
			}
		}
		JOINT UpperLeg_L
		{
			OFFSET -2.19248 -6.46944 0.0
			CHANNELS 6 Xposition Yposition Zposition Zrotation Xrotation Yrotation 
			JOINT LowerLeg_L
			{
				OFFSET 39.0811 0.0 -1.23785e-05
				CHANNELS 6 Xposition Yposition Zposition Zrotation Xrotation Yrotation 
				JOINT Foot_L
				{
					OFFSET 40.9854 0.0 -1.26872e-05
					CHANNELS 6 Xposition Yposition Zposition Zrotation Xrotation Yrotation 
					JOINT Toes_L
					{
						OFFSET 11.7543 0.0 0.0
						CHANNELS 6 Xposition Yposition Zposition Zrotation Xrotation Yrotation 
						End Site
						{
							OFFSET 0.0 0.0 0.0
						}
					}
				}
			}
		}
		JOINT UpperLeg_R
		{
			OFFSET -2.19251 6.46944 0.0
			CHANNELS 6 Xposition Yposition Zposition Zrotation Xrotation Yrotation 
			JOINT LowerLeg_R
			{
				OFFSET -39.0811 -0.00228153 -0.0401928
				CHANNELS 6 Xposition Yposition Zposition Zrotation Xrotation Yrotation 
				JOINT Foot_R
				{
					OFFSET -40.9854 0.0 0.0
					CHANNELS 6 Xposition Yposition Zposition Zrotation Xrotation Yrotation 
					JOINT Toes_R
					{
						OFFSET -11.7543 0.0 0.0
						CHANNELS 6 Xposition Yposition Zposition Zrotation Xrotation Yrotation 
						End Site
						{
							OFFSET 0.0 0.0 0.0
						}
					}
				}
			}
		}
	}
}
MOTION
Frames:	5
Frame Time:	0.0333333
0.000000 0.000000 0.000000 0.000000 0.000000 -0.000000 -3.768040 91.630700 -1.366180 83.974100 0.766458 8.360380 15.735700 0.000005 -0.000001 72.176900 86.252600 -70.052400 8.984550 -0.406207 -0.000000 -0.581882 -2.448180 4.235030 16.377300 -0.000001 -0.000001 11.924700 3.324060 4.925490 6.456720 -0.000001 -0.000000 -6.788390 2.444820 15.600100 12.994200 -0.242716 4.980390 -93.074900 8.345570 -69.690200 5.348090 -0.000007 -0.000001 -72.434900 27.545500 1.165840 24.328600 0.000019 0.000005 11.045000 27.094400 -23.198300 22.291600 -0.000001 0.000005 -2.383530 4.989080 7.550810 12.994500 -0.242716 -4.980390 86.711800 7.771280 -66.979700 -5.348130 -0.000001 -0.000004 -69.277100 -0.817994 -15.135100 -24.328900 0.000322 -0.000009 9.251910 -11.853800 -141.584000 -22.291500 -0.000108 -0.000004 38.227900 5.658560 -15.895000 -2.192480 -6.469440 -0.000000 -172.653000 7.036940 -1.094380 39.081100 -0.000007 -0.000012 0.412994 -0.710307 30.176000 40.985400 -0.000006 -0.000013 -0.940515 2.745280 -76.731100 11.754300 -0.000000 0.000003 0.000318 0.162081 -10.003200 -2.192510 6.469440 -0.000001 -170.361000 10.084400 -173.634000 -39.081100 -0.002282 -0.040193 0.161585 -0.504620 17.412700 -40.985400 0.000008 0.000006 6.485200 2.835680 -72.086800 -11.754300 -0.000006 -0.000006 -0.010921 0.278061 -5.274590
0.000000 0.000000 0.000000 0.000000 0.000000 -0.000000 -3.746120 91.647800 -1.427490 84.014200 0.787979 8.405890 15.735700 0.000005 -0.000001 72.423700 86.230200 -70.311600 8.984550 -0.406207 -0.000000 -0.529844 -2.429130 4.211420 16.377300 -0.000001 -0.000001 11.959800 3.247110 4.855800 6.456720 -0.000001 -0.000000 -6.802560 2.314820 15.278900 12.994200 -0.242716 4.980390 -93.098100 8.406120 -69.683400 5.348090 -0.000007 -0.000001 -72.374300 27.506900 1.199530 24.328600 0.000019 0.000005 11.064500 27.126800 -23.213100 22.291600 -0.000001 0.000005 -2.323710 4.990370 7.523640 12.994500 -0.242716 -4.980390 86.716600 7.733920 -66.911500 -5.348130 -0.000001 -0.000004 -69.297400 -0.720956 -15.178800 -24.328900 0.000322 -0.000009 9.215680 -11.786400 -141.539000 -22.291500 -0.000108 -0.000004 38.060800 5.657140 -15.739700 -2.192480 -6.469440 -0.000000 -172.705000 7.011000 -1.055410 39.081100 -0.000007 -0.000012 0.413595 -0.713222 30.110300 40.985400 -0.000006 -0.000013 -0.917994 2.792020 -76.733500 11.754300 -0.000000 0.000003 0.000179 0.164549 -9.902930 -2.192510 6.469440 -0.000001 -170.407000 10.030500 -173.637000 -39.081100 -0.002282 -0.040193 0.161255 -0.503064 17.429100 -40.985400 0.000008 0.000006 6.368270 2.784480 -72.088000 -11.754300 -0.000006 -0.000006 -0.011340 0.281063 -5.151690
0.000000 0.000000 0.000000 0.000000 0.000000 -0.000000 -3.722800 91.656600 -1.491180 84.009300 0.788494 8.467430 15.735700 0.000005 -0.000001 72.802800 86.200300 -70.695900 8.984550 -0.406207 -0.000000 -0.458605 -2.397480 4.202310 16.377300 -0.000001 -0.000001 11.991700 3.149340 4.793010 6.456720 -0.000001 -0.000000 -6.780680 2.209720 15.010000 12.994200 -0.242716 4.980390 -93.104500 8.430830 -69.699400 5.348090 -0.000007 -0.000001 -72.324700 27.499600 1.171840 24.328600 0.000019 0.000005 11.028200 27.105100 -23.158600 22.291600 -0.000001 0.000005 -2.327390 4.988820 7.556370 12.994500 -0.242716 -4.980390 86.731200 7.690580 -66.888100 -5.348130 -0.000001 -0.000004 -69.332700 -0.637949 -15.189500 -24.328900 0.000322 -0.000009 9.217290 -11.734900 -141.413000 -22.291500 -0.000108 -0.000004 38.173600 5.656290 -15.648800 -2.192480 -6.469440 -0.000000 -172.716000 7.002760 -1.042880 39.081100 -0.000007 -0.000012 0.408353 -0.704652 30.093700 40.985400 -0.000006 -0.000013 -0.912895 2.761410 -76.585000 11.754300 -0.000000 0.000003 0.000303 0.162358 -9.991920 -2.192510 6.469440 -0.000001 -170.385000 9.893450 -173.625000 -39.081100 -0.002282 -0.040193 0.161094 -0.502996 17.414600 -40.985400 0.000008 0.000006 6.380410 2.667500 -71.993400 -11.754300 -0.000006 -0.000006 -0.011175 0.279885 -5.199920
0.000000 0.000000 0.000000 0.000000 0.000000 -0.000000 -3.683580 91.677000 -1.564610 84.041400 0.745859 8.455990 15.735700 0.000005 -0.000001 73.264900 86.201400 -71.159800 8.984550 -0.406207 -0.000000 -0.444001 -2.337830 4.199330 16.377300 -0.000001 -0.000001 12.055500 3.070010 4.676870 6.456720 -0.000001 -0.000000 -6.815060 2.076880 14.752100 12.994200 -0.242716 4.980390 -93.126800 8.483550 -69.681200 5.348090 -0.000007 -0.000001 -72.269300 27.458400 1.182460 24.328600 0.000019 0.000005 11.084800 27.220400 -23.186000 22.291600 -0.000001 0.000005 -2.380530 4.990570 7.519410 12.994500 -0.242716 -4.980390 86.749700 7.654530 -66.909200 -5.348130 -0.000001 -0.000004 -69.310000 -0.635410 -15.166800 -24.328900 0.000322 -0.000009 9.284190 -11.768500 -141.287000 -22.291500 -0.000108 -0.000004 38.119900 5.656120 -15.630300 -2.192480 -6.469440 -0.000000 -172.763000 6.923430 -1.057440 39.081100 -0.000007 -0.000012 0.408052 -0.706184 30.021400 40.985400 -0.000006 -0.000013 -0.882705 2.782090 -76.551200 11.754300 -0.000000 0.000003 0.000207 0.164071 -9.922350 -2.192510 6.469440 -0.000001 -170.427000 9.826110 -173.671000 -39.081100 -0.002282 -0.040193 0.160274 -0.501182 17.388400 -40.985400 0.000008 0.000006 6.368880 2.650070 -71.951700 -11.754300 -0.000006 -0.000006 -0.011582 0.282769 -5.081830
0.000000 0.000000 0.000000 0.000000 0.000000 -0.000000 -3.654880 91.684900 -1.662170 84.023100 0.762038 8.449980 15.735700 0.000005 -0.000001 73.512800 86.182900 -71.401700 8.984550 -0.406207 -0.000000 -0.399329 -2.316440 4.212150 16.377300 -0.000001 -0.000001 12.082400 2.964580 4.632470 6.456720 -0.000001 -0.000000 -6.878310 2.020880 14.472300 12.994200 -0.242716 4.980390 -93.136500 8.495940 -69.650000 5.348090 -0.000007 -0.000001 -72.224200 27.534000 1.118910 24.328600 0.000019 0.000005 10.984500 27.034200 -23.124300 22.291600 -0.000001 0.000005 -2.275380 4.993300 7.461690 12.994500 -0.242716 -4.980390 86.756600 7.641590 -66.918300 -5.348130 -0.000001 -0.000004 -69.256800 -0.672254 -15.116700 -24.328900 0.000322 -0.000009 9.215420 -11.644800 -141.207000 -22.291500 -0.000108 -0.000004 37.836400 5.656620 -15.683600 -2.192480 -6.469440 -0.000000 -172.755000 6.951900 -1.147120 39.081100 -0.000007 -0.000012 0.403754 -0.698191 30.041100 40.985400 -0.000006 -0.000013 -0.866503 2.795800 -76.460200 11.754300 -0.000000 0.000003 0.000366 0.161218 -10.038200 -2.192510 6.469440 -0.000001 -170.411000 9.812020 -173.769000 -39.081100 -0.002282 -0.040193 0.159928 -0.499252 17.415500 -40.985400 0.000008 0.000006 6.357600 2.599220 -71.853500 -11.754300 -0.000006 -0.000006 -0.011013 0.278724 -5.247430
